<svg xmlns="http://www.w3.org/2000/svg" viewBox="0 0 800 620"><rect width="800" height="620" rx="42" fill="#f8f4e9"/><circle cx="400" cy="300" r="205" fill="#e8f0e9"/><g><circle cx="400" cy="145" r="62" fill="#d9a57e"/><circle cx="545" cy="220" r="62" fill="#f1c5a1"/><circle cx="545" cy="385" r="62" fill="#b97e5f"/><circle cx="400" cy="465" r="62" fill="#efc39d"/><circle cx="255" cy="385" r="62" fill="#8e604b"/><circle cx="255" cy="220" r="62" fill="#e1ad86"/></g><g fill="#345a67"><circle cx="382" cy="145" r="6"/><circle cx="418" cy="145" r="6"/><circle cx="527" cy="220" r="6"/><circle cx="563" cy="220" r="6"/><circle cx="527" cy="385" r="6"/><circle cx="563" cy="385" r="6"/><circle cx="382" cy="465" r="6"/><circle cx="418" cy="465" r="6"/><circle cx="237" cy="385" r="6"/><circle cx="273" cy="385" r="6"/><circle cx="237" cy="220" r="6"/><circle cx="273" cy="220" r="6"/></g><path d="M365 305q35-38 70 0q35-38 70 0q0 72-105 125q-105-53-105-125q35-38 70 0" fill="#86aeb5" opacity=".9"/><text x="400" y="585" text-anchor="middle" font-family="Arial Rounded MT Bold,Arial" font-size="34" font-weight="700" fill="#456f73">Every name belongs.</text></svg>